<?xml version="1.0" standalone="no"?>
<!DOCTYPE svg PUBLIC "-//W3C//DTD SVG 20010904//EN"
 "http://www.w3.org/TR/2001/REC-SVG-20010904/DTD/svg10.dtd">
<svg version="1.0" xmlns="http://www.w3.org/2000/svg"
 width="700.000000pt" height="700.000000pt" viewBox="0 0 700.000000 700.000000"
 preserveAspectRatio="xMidYMid meet">
<metadata>
Created by potrace 1.11, written by Peter Selinger 2001-2013
</metadata>
<g transform="translate(0.000000,700.000000) scale(0.100000,-0.100000)"
fill="#000000" stroke="none">
<path d="M1162 6191 c-117 -40 -191 -138 -196 -261 l-1 -35 -282 -3 -282 -2
-1 -83 c0 -45 -2 -94 -5 -110 -2 -15 -6 -62 -10 -105 -3 -42 -8 -93 -10 -112
-2 -19 -6 -71 -10 -115 -10 -133 -15 -187 -20 -245 -3 -30 -8 -86 -11 -125 -3
-38 -7 -90 -9 -115 -2 -25 -7 -76 -10 -115 -8 -101 -15 -183 -20 -240 -3 -27
-7 -77 -10 -110 -3 -33 -7 -87 -10 -120 -10 -109 -15 -169 -20 -235 -3 -36 -7
-90 -10 -120 -6 -62 -12 -144 -20 -240 -3 -36 -7 -90 -10 -120 -3 -30 -7 -77
-9 -105 -3 -27 -8 -88 -12 -135 -4 -47 -8 -98 -10 -115 -1 -16 -5 -68 -9 -115
-11 -142 -13 -163 -19 -227 -3 -35 -8 -91 -11 -125 -3 -35 -7 -88 -10 -118 -3
-30 -7 -84 -10 -120 -3 -36 -7 -92 -10 -125 -12 -138 -16 -182 -20 -225 -3
-25 -7 -79 -10 -120 -3 -41 -8 -93 -10 -115 -3 -22 -7 -71 -10 -110 -2 -38 -7
-95 -9 -125 -3 -30 -12 -138 -21 -240 -8 -102 -17 -205 -20 -230 -15 -150 -15
-178 -3 -182 7 -2 95 -4 196 -3 101 1 185 -2 188 -7 3 -4 5 -60 5 -125 l1
-118 3299 0 3299 0 0 2547 0 2548 -455 0 -455 0 0 44 c0 115 -85 227 -194 257
-177 50 -344 -64 -363 -247 l-6 -54 -288 0 -289 0 0 48 c0 59 -37 141 -84 187
-112 108 -288 105 -398 -8 -42 -44 -78 -129 -78 -187 l0 -40 -290 0 -290 0 0
40 c0 21 -9 63 -20 92 -89 236 -413 244 -515 13 -15 -32 -25 -75 -25 -100 l0
-45 -290 0 -290 0 -1 28 c-3 90 -33 156 -99 215 -114 103 -299 90 -394 -26
-43 -52 -56 -86 -65 -157 l-6 -55 -287 -3 c-159 -1 -288 1 -289 5 0 5 -2 29
-4 54 -16 174 -199 295 -363 240z m133 -235 c8 -12 13 -31 12 -44 -1 -20 -6
-22 -58 -22 -63 0 -75 12 -59 55 18 46 78 52 105 11z m1137 5 c10 -13 18 -34
18 -47 0 -23 -3 -24 -59 -24 -64 0 -74 8 -59 49 19 52 67 62 100 22z m1145 0
c7 -9 13 -28 13 -43 0 -27 -1 -28 -60 -28 -59 0 -60 1 -60 28 0 35 10 49 40
60 29 11 50 5 67 -17z m1116 18 c29 -16 37 -28 37 -61 0 -27 -1 -28 -60 -28
-59 0 -60 1 -60 28 0 32 8 45 35 60 25 14 22 14 48 1z m1169 -23 c4 -6 8 -23
8 -38 0 -27 -1 -28 -60 -28 -54 0 -60 2 -60 21 0 66 77 97 112 45z m-4574
-286 c21 0 22 -4 22 -68 l0 -68 -40 -23 c-137 -77 -195 -231 -145 -382 23 -69
111 -157 180 -181 67 -23 98 -26 164 -16 96 15 179 77 228 170 23 45 28 65 28
133 0 122 -52 213 -154 273 l-46 27 0 62 c1 34 3 65 7 68 4 5 348 7 841 5 l77
0 0 -70 0 -70 -37 -19 c-101 -52 -164 -160 -164 -279 0 -109 72 -226 168 -271
57 -27 69 -31 113 -34 93 -7 190 29 252 95 139 148 106 382 -69 485 l-43 25 0
69 0 69 460 0 460 0 0 -70 0 -70 -39 -19 c-56 -29 -124 -110 -144 -171 -50
-154 15 -310 159 -381 308 -152 594 245 356 494 -21 21 -54 47 -74 58 l-38 19
0 70 0 70 120 0 c66 0 230 1 365 1 135 0 288 -1 340 -1 l95 0 0 -70 c0 -67 -1
-70 -31 -85 -51 -27 -109 -86 -137 -139 -22 -43 -26 -64 -27 -136 0 -99 23
-159 86 -222 199 -198 534 -54 530 228 -1 106 -70 217 -163 265 l-38 19 0 70
0 70 33 0 c210 2 881 0 883 -3 2 -2 5 -32 7 -66 l3 -63 -51 -32 c-28 -18 -62
-47 -77 -64 -106 -126 -98 -313 18 -426 173 -169 458 -88 518 146 34 136 -32
286 -155 348 l-39 20 0 70 0 69 63 3 c34 2 189 2 345 0 l282 -3 0 -2327 0
-2327 -3077 0 -3078 0 -3 2327 -2 2327 77 3 c62 2 294 2 591 -2z m191 -369
c49 -46 37 -116 -25 -146 -30 -14 -37 -14 -69 -1 -25 11 -40 26 -51 51 -13 32
-13 39 1 69 29 61 94 73 144 27z m1142 0 c72 -72 -3 -186 -96 -147 -39 17 -55
42 -55 88 1 81 93 117 151 59z m1140 0 c38 -38 40 -91 4 -126 -13 -14 -31 -26
-40 -26 -8 -1 -21 -2 -27 -4 -16 -2 -59 22 -75 43 -39 49 12 142 77 142 22 0
41 -9 61 -29z m1122 18 c23 -10 38 -32 50 -70 8 -26 -20 -77 -50 -91 -49 -23
-96 -10 -118 32 -23 44 -19 78 14 111 31 31 64 36 104 18z m1140 0 c60 -27 67
-113 13 -158 -39 -32 -116 -10 -137 40 -32 79 46 154 124 118z m-5620 -3087
c-1 -482 -2 -897 -2 -922 l-1 -45 -67 1 c-38 1 -74 2 -81 3 -13 1 -11 68 3
181 3 19 7 73 11 120 3 47 7 101 9 120 2 19 7 73 10 120 3 47 8 96 10 110 2
14 7 70 10 125 4 55 8 111 10 125 2 14 7 66 10 115 4 50 8 101 10 115 2 14 7
66 10 115 4 50 8 106 10 125 2 19 6 78 10 130 4 52 9 102 10 111 2 9 6 61 10
115 6 86 10 114 18 114 1 0 1 -395 0 -878z"/>
<path d="M1039 4453 c0 -37 0 -2904 0 -2968 l1 -50 2653 1 c1460 0 2658 3
2663 6 7 5 12 2941 5 3026 -1 9 -540 12 -2661 12 l-2660 0 -1 -27z m5106
-1496 c0 -857 -3 -1297 -10 -1298 -59 -6 -4868 -2 -4872 4 -4 6 -7 2452 -4
2575 l1 22 2442 -2 2442 -3 1 -1298z"/>
<path d="M1460 3822 l0 -172 172 2 173 3 0 168 c0 106 -3 167 -10 168 -5 0
-83 1 -173 2 l-162 2 0 -173z"/>
<path d="M2109 3980 c-1 -8 -2 -86 -3 -173 l-1 -157 173 0 172 0 0 173 0 172
-170 0 c-144 0 -170 -2 -171 -15z"/>
<path d="M2768 3992 c-14 -3 -16 -26 -17 -173 l0 -169 173 0 174 0 -1 165 c0
109 -4 168 -11 173 -11 6 -287 10 -318 4z"/>
<path d="M3398 3935 c-2 -33 -2 -111 0 -173 l3 -112 171 2 172 3 1 168 1 167
-26 1 c-14 0 -91 1 -172 2 l-147 2 -3 -60z"/>
<path d="M4051 3990 c-3 -3 -6 -79 -6 -170 l0 -165 173 -3 172 -2 0 170 c0 93
-3 170 -7 171 -32 4 -326 3 -332 -1z"/>
<path d="M4989 3980 c0 -8 -2 -86 -2 -173 l-2 -157 173 0 172 0 0 173 0 172
-170 0 c-144 0 -170 -2 -171 -15z"/>
<path d="M5609 3992 c-11 -2 -14 -30 -12 -155 1 -83 2 -160 2 -169 1 -16 16
-18 171 -18 l170 0 1 33 c1 37 1 274 0 297 -1 13 -26 15 -159 15 -87 0 -165
-1 -173 -3z"/>
<path d="M1460 3247 l0 -174 172 1 172 1 1 170 0 170 -172 3 -173 2 0 -173z"/>
<path d="M2109 3403 c-4 -61 -3 -316 1 -322 3 -4 80 -7 173 -8 l167 0 0 174 0
173 -170 0 c-155 0 -170 -2 -171 -17z"/>
<path d="M2755 3408 c-2 -7 -3 -85 -2 -173 l2 -160 170 0 170 0 1 173 1 172
-169 0 c-126 0 -170 -3 -173 -12z"/>
<path d="M3398 3308 c-2 -62 -2 -140 0 -174 l3 -60 171 0 172 1 0 173 1 172
-172 0 -172 0 -3 -112z"/>
<path d="M4048 3413 c-3 -7 -2 -317 1 -333 1 -3 78 -6 171 -6 l170 0 0 173 0
173 -169 0 c-94 0 -171 -3 -173 -7z"/>
<path d="M4988 3413 c-2 -5 -4 -82 -3 -173 l1 -165 172 -1 172 -1 0 174 0 173
-169 0 c-94 0 -171 -3 -173 -7z"/>
<path d="M5599 3408 c0 -7 -1 -85 -2 -173 l-1 -160 172 -1 c167 0 172 0 173
20 1 24 1 294 0 314 -1 9 -42 12 -171 12 -129 0 -170 -3 -171 -12z"/>
<path d="M1470 2842 c-6 -2 -10 -69 -10 -173 l0 -169 173 0 172 0 -1 163 c-1
89 -2 167 -3 172 -1 9 -305 15 -331 7z"/>
<path d="M2112 2835 c-4 -5 -7 -83 -7 -172 l0 -163 173 0 172 0 -2 172 -3 172
-163 1 c-99 0 -166 -4 -170 -10z"/>
<path d="M2760 2840 c-5 -3 -9 -81 -9 -173 l0 -167 173 0 174 0 -2 172 -1 172
-163 1 c-90 0 -168 -2 -172 -5z"/>
<path d="M3405 2839 c-4 -5 -7 -145 -6 -267 l1 -72 172 2 172 3 1 163 c0 99
-4 166 -10 170 -12 8 -326 9 -330 1z"/>
<path d="M4052 2840 c-4 -3 -7 -80 -7 -173 l0 -167 173 0 172 0 -2 172 -3 172
-163 1 c-90 0 -167 -2 -170 -5z"/>
<path d="M4991 2830 c-6 -12 -7 -236 -2 -312 1 -16 16 -18 171 -18 l170 0 -2
172 -3 173 -163 0 c-136 0 -165 -3 -171 -15z"/>
<path d="M5602 2836 c-4 -7 -7 -279 -3 -326 1 -6 65 -10 171 -10 l170 0 1 28
c3 97 0 305 -6 310 -10 10 -326 8 -333 -2z"/>
<path d="M1460 2098 l0 -173 168 0 c92 0 169 3 172 7 3 3 5 80 5 170 l0 163
-173 3 -172 2 0 -172z"/>
<path d="M2108 2258 c-3 -11 -3 -313 1 -328 0 -3 78 -5 171 -5 l170 0 0 172 0
173 -169 0 c-126 0 -170 -3 -173 -12z"/>
<path d="M2751 2100 c1 -93 4 -171 7 -171 4 -1 82 -2 173 -3 l165 -1 1 172 1
173 -174 0 -173 0 0 -170z"/>
<path d="M3398 2173 c-2 -54 -1 -132 2 -173 l5 -75 160 -1 c88 0 165 3 170 7
8 6 13 285 6 332 -1 4 -77 7 -170 7 l-170 0 -3 -97z"/>
<path d="M4048 2263 c-3 -7 -2 -299 1 -328 1 -6 64 -10 171 -10 l170 0 0 172
0 173 -169 0 c-94 0 -171 -3 -173 -7z"/>
<path d="M4989 2268 c-4 -11 -3 -331 1 -337 3 -3 80 -7 173 -7 l167 1 0 172 0
173 -170 0 c-93 0 -170 -1 -171 -2z"/>
<path d="M5595 2097 l0 -172 165 0 c91 0 170 3 175 7 8 5 12 256 6 331 -1 4
-79 7 -173 7 l-173 0 0 -173z"/>
</g>
</svg>
